<?xml version="1.0" standalone="no"?>
<!DOCTYPE svg PUBLIC "-//W3C//DTD SVG 20010904//EN"
 "http://www.w3.org/TR/2001/REC-SVG-20010904/DTD/svg10.dtd">
<svg version="1.0" xmlns="http://www.w3.org/2000/svg"
 width="600.000000pt" height="600.000000pt" viewBox="0 0 600.000000 600.000000"
 preserveAspectRatio="xMidYMid meet">
<metadata>
Created by potrace 1.11, written by Peter Selinger 2001-2013
</metadata>
<g transform="translate(0.000000,600.000000) scale(0.100000,-0.100000)"
fill="#000000" stroke="none">
<path d="M265 5728 c-3 -7 -4 -614 -3 -1348 l3 -1335 342 -3 343 -2 0 -40 0
-40 -340 0 -340 0 0 -1345 0 -1345 1345 0 1345 0 0 340 0 340 40 0 40 0 2
-342 3 -343 1345 0 1345 0 0 1345 0 1345 -342 3 -343 2 0 40 0 40 340 0 340 0
0 1345 0 1345 -1345 0 -1345 0 0 -340 0 -340 -40 0 -40 0 -2 343 -3 342 -1343
3 c-1069 2 -1344 0 -1347 -10z m2731 -2716 c-3 -2 -82 67 -176 154 -94 88
-176 160 -183 162 -7 1 -305 -60 -662 -138 -357 -77 -650 -139 -651 -137 -1 1
272 90 608 197 336 107 616 200 623 205 6 6 108 322 226 703 l214 694 3 -918
c1 -504 0 -919 -2 -922z m255 1062 c110 -346 202 -630 204 -632 1 -1 314 -100
696 -218 382 -119 696 -217 698 -220 2 -2 -412 -4 -921 -4 l-925 0 -160 -172
c-87 -95 -162 -178 -166 -184 -5 -9 229 -1131 279 -1334 23 -95 -32 67 -207
616 -110 346 -205 631 -209 634 -5 3 -321 102 -703 220 l-694 215 927 3 928 2
167 181 c132 144 166 186 161 203 -2 11 -66 307 -141 656 -75 349 -139 644
-142 655 -3 11 -3 17 1 14 3 -3 97 -289 207 -635z m218 320 c325 -109 620
-349 796 -649 30 -51 73 -138 95 -193 45 -111 88 -267 78 -277 -4 -4 -19 -3
-33 2 -24 8 -31 22 -61 120 -71 237 -182 422 -354 593 -107 108 -233 201 -350
260 -87 44 -223 95 -292 110 -50 11 -58 17 -68 43 -5 16 -10 33 -10 38 0 9
101 -14 199 -47z m-745 19 c-4 -16 -8 -29 -9 -31 -1 -1 -40 -13 -86 -26 -385
-106 -708 -373 -889 -735 -43 -86 -110 -276 -110 -311 0 -13 -10 -22 -32 -28
-18 -5 -34 -5 -36 -1 -2 5 6 43 18 86 71 265 194 478 385 668 189 189 414 321
660 385 99 27 107 26 99 -7z m457 -1580 c93 -87 176 -159 182 -161 7 -1 305
60 662 137 357 78 650 140 651 138 1 -1 -272 -90 -608 -197 -336 -107 -616
-199 -623 -205 -6 -5 -108 -320 -225 -700 -117 -379 -214 -692 -216 -694 -2
-2 -4 410 -4 917 0 507 2 922 5 922 3 0 82 -71 176 -157z m-1577 -112 c13 -5
28 -39 52 -119 130 -428 436 -757 854 -917 47 -18 111 -39 142 -45 50 -11 58
-17 68 -43 15 -46 14 -46 -51 -31 -270 63 -498 192 -705 398 -128 129 -204
233 -279 383 -47 94 -110 271 -121 341 -7 44 -1 49 40 33z m2816 -88 c-71
-265 -194 -478 -385 -668 -120 -121 -239 -207 -384 -279 -98 -50 -266 -109
-340 -121 -42 -7 -43 -6 -36 16 11 36 24 44 100 64 369 96 705 375 885 734 43
86 110 276 110 311 0 13 10 22 33 28 17 5 33 5 35 1 2 -5 -6 -43 -18 -86z"/>
</g>
</svg>
